<svg id="SvgjsSvg1034" width="288" height="288" xmlns="http://www.w3.org/2000/svg" version="1.1" xmlns:xlink="http://www.w3.org/1999/xlink" xmlns:svgjs="http://svgjs.com/svgjs"><defs id="SvgjsDefs1035"></defs><g id="SvgjsG1036" transform="matrix(1,0,0,1,0,0)"><svg xmlns="http://www.w3.org/2000/svg" width="288" height="288" viewBox="0 0 1792 1792"><path d="M896 768q237 0 443-43t325-127v170q0 69-103 128t-280 93.5-385 34.5-385-34.5-280-93.5-103-128v-170q119 84 325 127t443 43zm0 768q237 0 443-43t325-127v170q0 69-103 128t-280 93.5-385 34.5-385-34.5-280-93.5-103-128v-170q119 84 325 127t443 43zm0-384q237 0 443-43t325-127v170q0 69-103 128t-280 93.5-385 34.5-385-34.5-280-93.5-103-128v-170q119 84 325 127t443 43zm0-1152q208 0 385 34.5t280 93.5 103 128v128q0 69-103 128t-280 93.5-385 34.5-385-34.5-280-93.5-103-128v-128q0-69 103-128t280-93.5 385-34.5z" fill="#777777" class="color000 svgShape"></path></svg></g></svg>