<svg id="SvgjsSvg1012" width="288" height="288" xmlns="http://www.w3.org/2000/svg" version="1.1" xmlns:xlink="http://www.w3.org/1999/xlink" xmlns:svgjs="http://svgjs.com/svgjs"><defs id="SvgjsDefs1013"></defs><g id="SvgjsG1014" transform="matrix(1,0,0,1,0,0)"><svg xmlns="http://www.w3.org/2000/svg" width="288" height="288" viewBox="0 0 32 32"><path d="M16 32c5.158 0 9.734-2.452 12.66-6.242L16 16V0C7.164 0 0 7.164 0 16s7.164 16 16 16zM14 2.142V16c0 .62.288 1.206.778 1.584l10.964 8.452A13.864 13.864 0 0 1 16 30C8.28 30 2 23.72 2 16 2 8.96 7.224 3.116 14 2.142zM18.75.268v14.31l11.424 8.806A15.83 15.83 0 0 0 32 16C32 8.104 26.272 1.574 18.75.268z" fill="#777777" class="color000 svgShape"></path></svg></g></svg>