<svg id="SvgjsSvg1017" width="288" height="288" xmlns="http://www.w3.org/2000/svg" version="1.1" xmlns:xlink="http://www.w3.org/1999/xlink" xmlns:svgjs="http://svgjs.com/svgjs"><defs id="SvgjsDefs1018"></defs><g id="SvgjsG1019" transform="matrix(1,0,0,1,0,0)"><svg xmlns="http://www.w3.org/2000/svg" viewBox="0 0 64 64" width="288" height="288"><path d="M50.44,18.4a13.16,13.16,0,0,0-1.77.12,16.92,16.92,0,0,0-33.34,0,13.16,13.16,0,0,0-1.77-.12,13.41,13.41,0,0,0-1.23,26.76V57.5a2,2,0,0,0,2,2H49.67a2,2,0,0,0,2-2V45.16A13.41,13.41,0,0,0,50.44,18.4Zm1.23,22.73v-8.3a2,2,0,0,0-2-2h-20l-1.48-3.45a2,2,0,0,0-1.84-1.21h-12a2,2,0,0,0-2,2v13A9.41,9.41,0,0,1,13.56,22.4a9.71,9.71,0,0,1,3,.48,2,2,0,0,0,1.75-.28A2,2,0,0,0,19.1,21a12.91,12.91,0,0,1,25.8,0,2,2,0,0,0,.84,1.58,2,2,0,0,0,1.75.28,9.71,9.71,0,0,1,2.95-.48,9.41,9.41,0,0,1,1.23,18.73Z" fill="#777777" class="color000 svgShape"></path></svg></g></svg>