<svg id="SvgjsSvg1039" width="288" height="288" xmlns="http://www.w3.org/2000/svg" version="1.1" xmlns:xlink="http://www.w3.org/1999/xlink" xmlns:svgjs="http://svgjs.com/svgjs"><defs id="SvgjsDefs1040"></defs><g id="SvgjsG1041" transform="matrix(1,0,0,1,0,0)"><svg xmlns="http://www.w3.org/2000/svg" enable-background="new 0 0 128 128" viewBox="0 0 128 128" width="288" height="288"><path fill="#777777" d="M123.8,113.7c-0.1-0.1-0.3-0.3-0.3-0.3l-26.6-31l0.1-0.2c9.7-14.8,10.8-33.3,4.1-48.9L88.8,42
			c4.4,12.9,1.4,27.7-8.8,38c-14.4,14.4-37.8,14.4-52.2,0c-14.4-14.4-14.4-37.8,0-52.2C41.2,14.4,62.5,13.4,77,25l12.3-8.7
			c-20.2-19-52.1-18.7-71.8,0.9l-0.1,0.1c-20,20.2-20,52.9,0.2,73c17.2,17.1,44.4,19.9,64.7,6.7l0.2-0.1l30.7,26.9
			c0,0,0.2,0.2,0.3,0.3c2.8,2.4,6.8,2.4,9.6,0l0.4-0.4l0.4-0.4l0,0C126.2,120.5,126.2,116.5,123.8,113.7z" class="color353534 svgShape"></path><path fill="#777777" d="M100,16L74.6,33.9L59.2,44.8c-1.1,0.8-1.8,2-1.9,3.3l-1,13.8L38,42.8c-0.9-1-2.3-1.5-3.6-1.3l-6.7,0.7
			c-1.3,2.9-2.1,6-2.3,9.1l7.8-0.8l23.7,24.6c0.8,0.9,2,1.4,3.2,1.4c0.5,0,1-0.1,1.5-0.3c1.7-0.6,2.8-2.1,2.9-3.8L66,50.8l13.7-9.7
			l25.4-17.9l9.9-7l3,4.3c0.8,1.1,2.5,0.8,2.9-0.5L125.5,5c0.3-1-0.4-2-1.5-2.1l-15.7-0.8c-1.4-0.1-2.2,1.5-1.4,2.6l3,4.3l0,0
			L100,16z" class="color353534 svgShape"></path></svg></g></svg>